<svg width="27" height="27" viewBox="0 0 27 27" fill="none" xmlns="http://www.w3.org/2000/svg">
<path d="M14.5329 2.02771C13.7337 1.52918 12.7239 1.52917 11.9246 2.02771L2.82981 7.70048C2.71885 7.76969 2.61457 7.84687 2.51746 7.93104L11.4553 15.9112C11.4609 15.916 11.4664 15.9211 11.472 15.9261L12.6782 17.0029C12.9918 17.2832 13.4657 17.2832 13.7794 17.0029L14.9855 15.9261C14.991 15.9211 14.9965 15.916 15.0022 15.9112L23.94 7.93104C23.8429 7.84687 23.7387 7.76969 23.6277 7.70048L14.5329 2.02771Z" fill="white"/>
<path d="M15.5438 17.6445L14.8806 18.2365C13.9397 19.0767 12.5179 19.0767 11.5768 18.2365L10.9137 17.6445L3.13245 24.592C3.43802 24.7283 3.7766 24.804 4.13398 24.804H22.3235C22.6808 24.804 23.0194 24.7283 23.3249 24.592L15.5438 17.6445Z" fill="white"/>
<path d="M24.5277 23.4486L16.7852 16.5357L24.7684 9.40771C24.7918 9.5457 24.8038 9.68659 24.8038 9.82896V22.3007C24.8038 22.7132 24.7043 23.104 24.5277 23.4486Z" fill="white"/>
<path d="M1.92966 23.4486L9.67222 16.5357L1.68893 9.40771C1.66558 9.5457 1.65356 9.68659 1.65356 9.82896V22.3007C1.65356 22.7132 1.75303 23.104 1.92966 23.4486Z" fill="white"/>
</svg>
