<svg width="28" height="28" viewBox="0 0 28 28" fill="none" xmlns="http://www.w3.org/2000/svg">
<path d="M15.3998 2.69751C14.6005 2.19898 13.5907 2.19897 12.7914 2.69751L3.69663 8.37028C3.58567 8.43949 3.48139 8.51667 3.38428 8.60084L12.3221 16.581C12.3277 16.5858 12.3333 16.5909 12.3388 16.5959L13.545 17.6727C13.8586 17.953 14.3326 17.953 14.6462 17.6727L15.8523 16.5959C15.8578 16.5909 15.8634 16.5858 15.869 16.581L24.8068 8.60084C24.7098 8.51667 24.6055 8.43949 24.4945 8.37028L15.3998 2.69751Z" fill="#CFB764"/>
<path d="M16.4106 18.3143L15.7475 18.9063C14.8065 19.7465 13.3847 19.7465 12.4436 18.9063L11.7805 18.3143L3.99927 25.2618C4.30484 25.3981 4.64342 25.4738 5.0008 25.4738H23.1903C23.5476 25.4738 23.8862 25.3981 24.1917 25.2618L16.4106 18.3143Z" fill="#CFB764"/>
<path d="M25.3946 24.1189L17.6521 17.2059L25.6354 10.078C25.6587 10.216 25.6707 10.3569 25.6707 10.4993V22.971C25.6707 23.3835 25.5713 23.7742 25.3946 24.1189Z" fill="#CFB764"/>
<path d="M2.7966 24.1189L10.5392 17.2059L2.55588 10.078C2.53252 10.216 2.52051 10.3569 2.52051 10.4993V22.971C2.52051 23.3835 2.61998 23.7742 2.7966 24.1189Z" fill="#CFB764"/>
</svg>
