<svg width="29" height="27" viewBox="0 0 29 27" fill="none" xmlns="http://www.w3.org/2000/svg">
<g clip-path="url(#clip0_78_51)">
<path d="M26.6576 3.83507C25.1391 2.42125 23.1287 1.64852 20.983 1.64852C18.8374 1.64852 16.8209 2.42698 15.3023 3.8408L14.5092 4.57919L13.7038 3.82935C12.1853 2.41553 10.1626 1.63135 8.01698 1.63135C5.87749 1.63135 3.86095 2.40981 2.34856 3.8179C0.830008 5.23172 -0.0061143 7.10918 3.36645e-05 9.10685C3.36645e-05 11.1045 0.842304 12.9762 2.36085 14.3901L13.9067 25.1397C14.0666 25.2885 14.2817 25.3686 14.4908 25.3686C14.6998 25.3686 14.915 25.2942 15.0748 25.1454L26.6453 14.413C28.1638 12.9991 29 11.1217 29 9.12402C29.0061 7.12635 28.1761 5.24889 26.6576 3.83507ZM25.4772 13.3197L14.4908 23.5083L3.52896 13.3025C2.32396 12.1806 1.65998 10.6924 1.65998 9.10685C1.65998 7.52131 2.31782 6.03308 3.52282 4.9169C4.72167 3.80073 6.32014 3.18254 8.01698 3.18254C9.71996 3.18254 11.3246 3.80073 12.5296 4.92263L13.919 6.21624C14.2449 6.51961 14.7674 6.51961 15.0933 6.21624L16.4704 4.93408C17.6754 3.81218 19.28 3.19399 20.9769 3.19399C22.6737 3.19399 24.2722 3.81218 25.4772 4.92835C26.6822 6.05025 27.34 7.53848 27.34 9.12402C27.3462 10.7096 26.6822 12.1978 25.4772 13.3197Z" fill="#B3A05D"/>
</g>
<defs>
<clipPath id="clip0_78_51">
<rect width="29" height="27" fill="white"/>
</clipPath>
</defs>
</svg>
