<?xml version="1.0" encoding="UTF-8"?> <!-- Generator: Adobe Illustrator 25.4.1, SVG Export Plug-In . SVG Version: 6.00 Build 0) --> <svg xmlns="http://www.w3.org/2000/svg" xmlns:xlink="http://www.w3.org/1999/xlink" id="Layer_0_copy_xA0_Изображение_1_" x="0px" y="0px" viewBox="0 0 456.9 455.5" style="enable-background:new 0 0 456.9 455.5;" xml:space="preserve"> <style type="text/css"> .st0{fill:#CFB764;} </style> <g> <path class="st0" d="M228.6,454.8c-30.3,0-60.6,0.5-90.9-0.2c-24.1-0.5-47.7-4.4-69.4-15.7c-34.6-18.1-55.1-47.1-62.1-85 c-3.2-17.6-4.3-35.7-4.6-53.6c-0.8-45.3-1-90.6-0.5-135.9c0.3-23.9,0.2-48,6.9-71.3c13.9-48.8,46-78.4,95.6-87.9 C121,1.9,138.9,1,156.7,0.7c45.3-0.7,90.6-1,135.9-0.5c23.7,0.3,47.6,0.3,70.8,6.8c49.1,13.8,78.7,46.1,88.2,95.9 c3.3,17.2,4.2,35,4.5,52.6c0.7,45.3,1,90.6,0.5,135.9c-0.3,23.9-0.2,48-6.9,71.3c-13.9,48.8-46,78.4-95.6,87.9 c-17.4,3.3-35.3,4-53.1,4.5c-24.1,0.7-48.3,0.2-72.4,0.2C228.6,455.2,228.6,455,228.6,454.8z M415.4,228.3c0.1,0,0.2,0,0.4,0 c0-19.7,0.5-39.3-0.1-59c-0.6-19.4-1-39-4.1-58.2c-5.4-33.2-24.8-55.1-57.7-64.4c-18.5-5.2-37.5-5.4-56.4-5.6 c-42.5-0.5-85-0.6-127.5-0.1c-19.4,0.3-39.1,0.9-58.1,4.1C79,50.5,57.1,69.9,47.8,102.6c-5.3,18.6-5.4,37.9-5.7,56.9 c-0.5,42.2-0.6,84.3-0.1,126.5c0.3,19.6,0.9,39.4,4.1,58.6c5.5,33.6,25.3,55.6,58.7,64.6c18.4,5,37.2,5.1,56,5.4 c42,0.5,84,0.6,126,0.1c19.7-0.3,39.7-0.9,59.1-4.1c33.5-5.6,55.5-25.4,64.4-58.9c4.3-15.9,4.7-32.2,5-48.5 C415.8,278.3,415.4,253.3,415.4,228.3z"></path> <path class="st0" d="M228.8,344.9c-64.7,0-117-52.4-117-117.1c0-64.9,52.5-116.9,117.7-116.9c64.3,0,116.3,52.8,116.3,117.9 C345.7,292.6,293.1,344.9,228.8,344.9z M229,304c42.2-0.1,76-34,75.9-76.3c-0.1-42.2-34-76-76.3-75.9c-42.2,0.1-76,34-75.9,76.3 C152.8,270.3,186.8,304.1,229,304z"></path> <path class="st0" d="M350.9,78.9c15,0.1,27.1,12.4,26.9,27.6c-0.1,14.8-12.4,26.8-27.2,26.8c-15.2-0.1-27.3-12.2-27.1-27.3 C323.5,90.8,335.7,78.8,350.9,78.9z"></path> </g> </svg> 