<svg width="42" height="41" viewBox="0 0 42 41" fill="none" xmlns="http://www.w3.org/2000/svg">
<path d="M37.9 26.6C38.2 25.8 38.4 25.2 38.6 24.5C39.1 22.4 39.3 20.4 39 18.2C38.2 12.4 35.2 8 30.1 5C27.1 3.3 23.8 2.5 20.3 2.7C18.6 2.8 16.9 3.1 15.3 3.8C15 3.9 14.8 3.8 14.6 3.6C14.3 3.1 13.9 2.6 13.6 2.1C13.3 1.7 13.3 1.6 13.8 1.4C15.2 1 16.6 0.6 18 0.2C18.4 0.1 18.8 0 19.2 0C20.2 0 21.3 0 22.3 0C25.2 0 28 0.7 30.6 2C33.8 3.6 36.4 5.9 38.4 8.9C39.7 10.9 40.7 13 41.3 15.4C41.9 17.8 41.9 20.3 41.7 22.7C41.5 25 40.8 27.2 39.7 29.3C39.6 29.5 39.5 29.8 39.3 30C38.8 30.7 37.8 30.8 37.2 30.2C36 29 34.9 27.7 33.7 26.4C31.6 24.1 29.6 21.9 27.5 19.6C27.2 19.3 27 19.3 26.7 19.6C25.8 20.5 24.9 21.3 23.9 22.1C23.5 22.5 23.5 22.6 23.9 23C27.2 26.7 30.5 30.4 33.9 34.1C34.8 35.1 34.7 35.9 33.6 36.7C30.8 38.8 27.6 40.1 24.1 40.5C21.1 40.8 18.1 40.7 15.1 39.7C10.4 38.1 6.7 35.2 4 31C3.6 30.4 3.6 30.4 4.2 29.9C4.6 29.6 4.9 29.2 5.3 28.9C5.7 28.5 5.8 28.5 6.1 29C6.9 30.1 7.6 31.2 8.5 32.2C10.9 34.9 13.9 36.6 17.5 37.4C19.8 37.9 22.1 38 24.4 37.6C26.6 37.2 28.6 36.5 30.6 35.3C30.9 35.1 30.9 34.9 30.7 34.7C28.8 32.6 26.9 30.6 25.1 28.5C23.4 26.6 21.7 24.6 19.9 22.7C18.5 21.2 17.2 19.7 15.8 18.2C15.6 18 15.4 17.8 15.1 18.1C11.6 21.3 8.1 24.6 4.6 27.8C4.2 28.1 3.9 28.5 3.5 28.8C3.1 29 2.9 29 2.7 28.6C2.3 27.6 2 26.6 1.6 25.6C0.900002 23.3 0.900002 20.8 1 18.4C1.1 16.4 1.6 14.6 2.3 12.7C2.5 12.2 2.6 12.2 3 12.5C3.4 12.8 3.9 13.1 4.3 13.4C4.7 13.6 4.8 13.9 4.7 14.3C3.9 16.7 3.4 19.1 3.7 21.6C3.8 22.2 3.8 22.8 4 23.5C4.1 24 4.2 24.1 4.6 23.7C7.6 21 10.5 18.2 13.5 15.5C13.8 15.3 14 15 14.3 14.8C15 14.2 15.7 14.1 16.4 14.8C17.5 16 18.6 17.1 19.6 18.3C20.1 18.8 20.6 19.4 21.1 19.9C21.4 20.2 21.6 20.2 21.9 19.9C23.2 18.7 24.6 17.5 25.9 16.3C26.9 15.4 27.6 15.4 28.5 16.4C31.4 19.6 34.3 22.8 37.2 26.1C37.4 26.3 37.6 26.4 37.9 26.6Z" fill="#CFB764"/>
<path d="M14 7.2C13.9 10.8 10.7 13.3 7.3 13C4.3 12.7 1.6 10 1.8 6.5C2 3.2 4.9 0.5 8.3 0.8C11.5 1 14.3 3.6 14 7.2ZM4.6 6.9C4.6 8.7 6.1 10.2 7.8 10.2C9.7 10.2 11.2 8.7 11.2 6.9C11.2 5.1 9.7 3.6 7.9 3.6C6.1 3.6 4.6 5 4.6 6.9Z" fill="#CFB764"/>
<path d="M17 31.4C16.8 31.4 16.6 31.4 16.4 31.4C16 31.4 15.8 31.2 15.7 30.8C15.7 30.7 15.7 30.6 15.7 30.6C15.6 28.4 15.9 28.7 17.8 28.8C18.2 28.8 18.3 29.2 18.4 29.6C18.4 29.9 18.4 30.2 18.4 30.5C18.4 31.2 18.2 31.5 17.4 31.5C17.3 31.4 17.1 31.4 17 31.4Z" fill="#CFB764"/>
<path d="M17 27.8C16.8 27.8 16.6 27.8 16.4 27.8C15.9 27.8 15.7 27.5 15.7 27.1C15.7 27 15.7 26.9 15.7 26.8C15.5 24.9 16 25.2 17.7 25.2C18.1 25.2 18.3 25.4 18.3 25.8C18.3 26.3 18.3 26.7 18.3 27.2C18.3 27.6 18 27.8 17.6 27.9C17.5 27.8 17.2 27.8 17 27.8Z" fill="#CFB764"/>
<path d="M13.4 31.4C13.2 31.4 13 31.4 12.8 31.4C12.4 31.4 12.2 31.1 12.1 30.7V30.6C12 28.9 12.5 28.4 14.2 28.7C14.6 28.8 14.7 29 14.8 29.4C14.8 29.8 14.8 30.2 14.8 30.7C14.8 31.1 14.5 31.4 14 31.4C13.8 31.4 13.6 31.4 13.4 31.4Z" fill="#CFB764"/>
<path d="M13.5 27.8C13.3 27.8 13.1 27.8 12.9 27.8C12.4 27.8 12.2 27.5 12.1 27V26.9C12 25.2 12.5 24.8 14.1 25.1C14.5 25.2 14.7 25.4 14.7 25.8C14.7 26.2 14.7 26.6 14.7 27C14.7 27.5 14.4 27.7 13.9 27.7C13.8 27.8 13.7 27.8 13.5 27.8Z" fill="#CFB764"/>
</svg>
