<?xml version="1.0" encoding="UTF-8"?> <!-- Generator: Adobe Illustrator 25.4.1, SVG Export Plug-In . SVG Version: 6.00 Build 0) --> <svg xmlns="http://www.w3.org/2000/svg" xmlns:xlink="http://www.w3.org/1999/xlink" id="Слой_1" x="0px" y="0px" viewBox="0 0 132.9 40.6" style="enable-background:new 0 0 132.9 40.6;" xml:space="preserve"> <style type="text/css"> .st0{fill:#CFB764;} </style> <g> <path class="st0" d="M36.9,26.6c0.3-0.8,0.5-1.4,0.7-2.1c0.5-2.1,0.7-4.1,0.4-6.3C37.2,12.4,34.2,8,29.1,5c-3-1.7-6.3-2.5-9.8-2.3 c-1.7,0.1-3.4,0.4-5,1.1c-0.3,0.1-0.5,0-0.7-0.2c-0.3-0.5-0.7-1-1-1.5c-0.3-0.4-0.3-0.5,0.2-0.7c1.4-0.4,2.8-0.8,4.2-1.2 C17.4,0.1,17.8,0,18.2,0c1,0,2.1,0,3.1,0c2.9,0,5.7,0.7,8.3,2c3.2,1.6,5.8,3.9,7.8,6.9c1.3,2,2.3,4.1,2.9,6.5 c0.6,2.4,0.6,4.9,0.4,7.3c-0.2,2.3-0.9,4.5-2,6.6c-0.1,0.2-0.2,0.5-0.4,0.7c-0.5,0.7-1.5,0.8-2.1,0.2c-1.2-1.2-2.3-2.5-3.5-3.8 c-2.1-2.3-4.1-4.5-6.2-6.8c-0.3-0.3-0.5-0.3-0.8,0c-0.9,0.9-1.8,1.7-2.8,2.5c-0.4,0.4-0.4,0.5,0,0.9c3.3,3.7,6.6,7.4,10,11.1 c0.9,1,0.8,1.8-0.3,2.6c-2.8,2.1-6,3.4-9.5,3.8c-3,0.3-6,0.2-9-0.8C9.4,38.1,5.7,35.2,3,31c-0.4-0.6-0.4-0.6,0.2-1.1 c0.4-0.3,0.7-0.7,1.1-1c0.4-0.4,0.5-0.4,0.8,0.1c0.8,1.1,1.5,2.2,2.4,3.2c2.4,2.7,5.4,4.4,9,5.2c2.3,0.5,4.6,0.6,6.9,0.2 c2.2-0.4,4.2-1.1,6.2-2.3c0.3-0.2,0.3-0.4,0.1-0.6c-1.9-2.1-3.8-4.1-5.6-6.2c-1.7-1.9-3.4-3.9-5.2-5.8c-1.4-1.5-2.7-3-4.1-4.5 c-0.2-0.2-0.4-0.4-0.7-0.1c-3.5,3.2-7,6.5-10.5,9.7c-0.4,0.3-0.7,0.7-1.1,1C2.1,29,1.9,29,1.7,28.6c-0.4-1-0.7-2-1.1-3 c-0.7-2.3-0.7-4.8-0.6-7.2c0.1-2,0.6-3.8,1.3-5.7c0.2-0.5,0.3-0.5,0.7-0.2c0.4,0.3,0.9,0.6,1.3,0.9c0.4,0.2,0.5,0.5,0.4,0.9 c-0.8,2.4-1.3,4.8-1,7.3c0.1,0.6,0.1,1.2,0.3,1.9c0.1,0.5,0.2,0.6,0.6,0.2c3-2.7,5.9-5.5,8.9-8.2c0.3-0.2,0.5-0.5,0.8-0.7 c0.7-0.6,1.4-0.7,2.1,0c1.1,1.2,2.2,2.3,3.2,3.5c0.5,0.5,1,1.1,1.5,1.6c0.3,0.3,0.5,0.3,0.8,0c1.3-1.2,2.7-2.4,4-3.6 c1-0.9,1.7-0.9,2.6,0.1c2.9,3.2,5.8,6.4,8.7,9.7C36.4,26.3,36.6,26.4,36.9,26.6z"></path> <path class="st0" d="M13,7.2c-0.1,3.6-3.3,6.1-6.7,5.8c-3-0.3-5.7-3-5.5-6.5c0.2-3.3,3.1-6,6.5-5.7C10.5,1,13.3,3.6,13,7.2z M3.6,6.9c0,1.8,1.5,3.3,3.2,3.3c1.9,0,3.4-1.5,3.4-3.3c0-1.8-1.5-3.3-3.3-3.3C5.1,3.6,3.6,5,3.6,6.9z"></path> <path class="st0" d="M16,31.4c-0.2,0-0.4,0-0.6,0c-0.4,0-0.6-0.2-0.7-0.6c0-0.1,0-0.2,0-0.2c-0.1-2.2,0.2-1.9,2.1-1.8 c0.4,0,0.5,0.4,0.6,0.8c0,0.3,0,0.6,0,0.9c0,0.7-0.2,1-1,1C16.3,31.4,16.1,31.4,16,31.4C16,31.4,16,31.4,16,31.4z"></path> <path class="st0" d="M16,27.8c-0.2,0-0.4,0-0.6,0c-0.5,0-0.7-0.3-0.7-0.7c0-0.1,0-0.2,0-0.3c-0.2-1.9,0.3-1.6,2-1.6 c0.4,0,0.6,0.2,0.6,0.6c0,0.5,0,0.9,0,1.4c0,0.4-0.3,0.6-0.7,0.7C16.5,27.8,16.2,27.8,16,27.8z"></path> <path class="st0" d="M12.4,31.4c-0.2,0-0.4,0-0.6,0c-0.4,0-0.6-0.3-0.7-0.7c0,0,0-0.1,0-0.1c-0.1-1.7,0.4-2.2,2.1-1.9 c0.4,0.1,0.5,0.3,0.6,0.7c0,0.4,0,0.8,0,1.3c0,0.4-0.3,0.7-0.8,0.7C12.8,31.4,12.6,31.4,12.4,31.4C12.4,31.4,12.4,31.4,12.4,31.4z"></path> <path class="st0" d="M12.5,27.8c-0.2,0-0.4,0-0.6,0c-0.5,0-0.7-0.3-0.8-0.8c0,0,0-0.1,0-0.1c-0.1-1.7,0.4-2.1,2-1.8 c0.4,0.1,0.6,0.3,0.6,0.7c0,0.4,0,0.8,0,1.2c0,0.5-0.3,0.7-0.8,0.7C12.8,27.8,12.7,27.8,12.5,27.8C12.5,27.8,12.5,27.8,12.5,27.8z"></path> </g> <g> <g> <g> <path class="st0" d="M55.5,9.7v2h-4.2v1.4h3.2v2h-3.2v2.9H49V9.7H55.5z"></path> <path class="st0" d="M58.2,16.3l-0.6,1.8h-2.5l3.2-8.4h2.5l3.2,8.4h-2.5l-0.6-1.8H58.2z M59.6,12l-0.8,2.5h1.6L59.6,12z"></path> <path class="st0" d="M70.5,9.7v2h-2.3v6.4h-2.3v-6.4h-2.3v-2H70.5z"></path> <path class="st0" d="M76.5,15.8c0.3-0.3,0.5-0.7,0.5-1.2V9.7h2.3v4.9c0,1.1-0.4,1.9-1.1,2.7s-1.6,1.1-2.7,1.1s-2-0.4-2.7-1.1 s-1.1-1.6-1.1-2.7V9.7h2.3v4.9c0,0.5,0.2,0.9,0.5,1.2s0.7,0.5,1.1,0.5S76.2,16.1,76.5,15.8z"></path> <path class="st0" d="M83.4,13.1v5h-2.3V9.7h2l2.6,3.3l2.6-3.3h2v8.4h-2.3v-5l-2.3,2.9L83.4,13.1z"></path> <path class="st0" d="M92.6,9.7h0.9v8.4h-0.9V9.7z"></path> <path class="st0" d="M102.8,9.7v8.4h-0.8l-5.2-6.8v6.8H96V9.7h0.8l5.2,6.8V9.7H102.8z"></path> <path class="st0" d="M104.5,9.7h1l2.8,7.1l2.8-7.1h1l-3.3,8.4h-0.8L104.5,9.7z"></path> <path class="st0" d="M119.4,17.3v0.8h-5.9V9.7h5.8v0.8h-4.9v2.8h3.9v0.8h-3.9v3.1H119.4z"></path> <path class="st0" d="M125,15.1c-0.2-0.2-0.4-0.4-0.7-0.5s-0.6-0.2-0.9-0.3s-0.6-0.2-1-0.3s-0.6-0.2-0.9-0.4s-0.5-0.4-0.7-0.7 s-0.3-0.6-0.3-1c0-0.6,0.2-1.2,0.7-1.6s1.1-0.7,2-0.7c0.3,0,0.6,0,0.9,0.1s0.5,0.2,0.7,0.3s0.3,0.2,0.5,0.3s0.2,0.2,0.3,0.3 l0.1,0.1l-0.6,0.6c0,0,0-0.1-0.1-0.1s-0.1-0.1-0.2-0.2s-0.2-0.2-0.4-0.3s-0.3-0.1-0.5-0.2s-0.4-0.1-0.7-0.1c-0.6,0-1,0.1-1.3,0.4 s-0.5,0.6-0.5,1c0,0.3,0.1,0.5,0.3,0.7s0.4,0.4,0.7,0.5s0.6,0.2,0.9,0.3s0.6,0.2,1,0.3s0.6,0.2,0.9,0.4s0.5,0.4,0.7,0.7 s0.3,0.6,0.3,1.1c0,0.7-0.2,1.3-0.8,1.7s-1.2,0.7-2.1,0.7c-0.4,0-0.7,0-1-0.1s-0.6-0.2-0.8-0.3s-0.4-0.2-0.6-0.4 s-0.3-0.2-0.3-0.3l-0.1-0.1l0.6-0.6c0,0,0,0.1,0.1,0.1s0.1,0.1,0.3,0.3s0.3,0.2,0.4,0.3s0.4,0.2,0.6,0.2s0.5,0.1,0.8,0.1 c0.6,0,1.1-0.1,1.4-0.4s0.5-0.7,0.5-1.1C125.2,15.5,125.1,15.3,125,15.1z"></path> <path class="st0" d="M132.9,9.7v0.8h-2.6v7.6h-0.9v-7.6h-2.6V9.7H132.9z"></path> </g> </g> <g> <path class="st0" d="M50,22.7c0.3,0,0.6,0.1,0.8,0.3s0.3,0.5,0.3,0.7c0,0.1,0,0.3-0.1,0.4s-0.1,0.2-0.2,0.3s-0.1,0.1-0.2,0.2 c-0.1,0-0.1,0.1-0.2,0.1l-0.1,0l0.8,1.5h-0.4l-0.8-1.4h-1v1.4h-0.4v-3.5H50z M48.9,23.1v1.4h1c0.2,0,0.4-0.1,0.5-0.2 c0.1-0.1,0.2-0.3,0.2-0.5c0-0.2-0.1-0.4-0.2-0.5c-0.1-0.1-0.3-0.2-0.5-0.2H48.9z"></path> <path class="st0" d="M54.9,25.9v0.3h-2.5v-3.5h2.4v0.4h-2v1.1h1.6v0.3h-1.6v1.3H54.9z"></path> <path class="st0" d="M56.5,25.2l-0.4,1h-0.4l1.5-3.5h0.3l1.5,3.5h-0.4l-0.4-1H56.5z M57.4,23.2l-0.7,1.7H58L57.4,23.2z"></path> <path class="st0" d="M60.1,26.2v-3.5h0.4v3.2h1.8v0.3H60.1z"></path> <path class="st0" d="M67.3,25.9v0.3h-2.5v-3.5h2.4v0.4h-2v1.1h1.6v0.3h-1.6v1.3H67.3z"></path> <path class="st0" d="M70.1,24.9c-0.1-0.1-0.2-0.2-0.3-0.2s-0.2-0.1-0.4-0.1c-0.1,0-0.3-0.1-0.4-0.1c-0.1,0-0.3-0.1-0.4-0.2 s-0.2-0.2-0.3-0.3s-0.1-0.3-0.1-0.4c0-0.3,0.1-0.5,0.3-0.7c0.2-0.2,0.5-0.3,0.8-0.3c0.1,0,0.2,0,0.4,0c0.1,0,0.2,0.1,0.3,0.1 c0.1,0,0.1,0.1,0.2,0.1c0.1,0,0.1,0.1,0.1,0.1l0,0l-0.3,0.3c0,0,0,0,0,0c0,0,0,0-0.1-0.1c0,0-0.1-0.1-0.2-0.1 c-0.1,0-0.1-0.1-0.2-0.1c-0.1,0-0.2,0-0.3,0c-0.2,0-0.4,0.1-0.5,0.2s-0.2,0.3-0.2,0.4c0,0.1,0,0.2,0.1,0.3 c0.1,0.1,0.2,0.2,0.3,0.2c0.1,0,0.2,0.1,0.4,0.1c0.1,0,0.3,0.1,0.4,0.1c0.1,0,0.3,0.1,0.4,0.2s0.2,0.2,0.3,0.3 c0.1,0.1,0.1,0.3,0.1,0.4c0,0.3-0.1,0.5-0.3,0.7c-0.2,0.2-0.5,0.3-0.9,0.3c-0.1,0-0.3,0-0.4-0.1c-0.1,0-0.2-0.1-0.3-0.1 c-0.1,0-0.2-0.1-0.2-0.2s-0.1-0.1-0.1-0.1l0-0.1l0.2-0.3c0,0,0,0,0,0c0,0,0.1,0.1,0.1,0.1c0.1,0,0.1,0.1,0.2,0.1 c0.1,0,0.2,0.1,0.3,0.1c0.1,0,0.2,0,0.3,0c0.3,0,0.5-0.1,0.6-0.2c0.1-0.1,0.2-0.3,0.2-0.5C70.3,25.1,70.2,25,70.1,24.9z"></path> <path class="st0" d="M74,22.7v0.4h-1.1v3.1h-0.4v-3.1h-1.1v-0.4H74z"></path> <path class="st0" d="M75.2,25.2l-0.4,1h-0.4l1.4-3.5h0.3l1.5,3.5h-0.4l-0.4-1H75.2z M76,23.2l-0.7,1.7h1.3L76,23.2z"></path> <path class="st0" d="M80.6,22.7v0.4h-1.1v3.1h-0.4v-3.1H78v-0.4H80.6z"></path> <path class="st0" d="M84.2,25.9v0.3h-2.5v-3.5h2.4v0.4h-2v1.1h1.6v0.3h-1.6v1.3H84.2z"></path> <path class="st0" d="M86.8,22.7h0.8v3.5h-0.8V22.7z"></path> <path class="st0" d="M92.1,22.7v3.5h-0.6L89.7,24v2.2H89v-3.5h0.7l1.7,2.2v-2.2H92.1z"></path> <path class="st0" d="M95.7,25.4l-0.3,0.8h-0.8l1.4-3.5h0.8l1.4,3.5h-0.8l-0.3-0.8H95.7z M96.4,23.6L96,24.7h0.9L96.4,23.6z"></path> <path class="st0" d="M99.2,26.2v-3.5h0.8v2.8h1.6v0.7H99.2z"></path> <path class="st0" d="M103.3,25.4l-0.3,0.8h-0.8l1.4-3.5h0.8l1.4,3.5H105l-0.3-0.8H103.3z M104,23.6l-0.4,1.1h0.9L104,23.6z"></path> <path class="st0" d="M109.9,22.7v3.5h-0.6l-1.7-2.2v2.2h-0.8v-3.5h0.7l1.7,2.2v-2.2H109.9z"></path> <path class="st0" d="M112.5,24.2l0.8-1.5h0.8l-1.2,2.3v1.2h-0.8V25l-1.2-2.3h0.8L112.5,24.2z"></path> <path class="st0" d="M115.4,25.4l-0.3,0.8h-0.8l1.4-3.5h0.8l1.4,3.5h-0.8l-0.3-0.8H115.4z M116.1,23.6l-0.4,1.1h0.9L116.1,23.6z"></path> </g> </g> </svg> 