<?xml version="1.0" encoding="UTF-8"?> <!-- Generator: Adobe Illustrator 25.4.1, SVG Export Plug-In . SVG Version: 6.00 Build 0) --> <svg xmlns="http://www.w3.org/2000/svg" xmlns:xlink="http://www.w3.org/1999/xlink" id="Слой_1" x="0px" y="0px" viewBox="0 0 141.7 238.3" style="enable-background:new 0 0 141.7 238.3;" xml:space="preserve"> <style type="text/css"> .st0{fill:#CFB764;} </style> <g> <path class="st0" d="M75.8,0c4.7,1,9.5,1.7,14.1,3.1c26.6,8.7,43.7,35.8,40.1,63.4c-3.5,27.3-24.1,48.1-51.4,51.9 c-31,4.2-60.7-17.6-66-48.5C6.8,36.5,29.4,5.4,62.9,0.5C64,0.4,65.2,0.2,66.3,0C69.5,0,72.6,0,75.8,0z M116.6,59.4 c-0.1-25.2-20.5-45.6-45.7-45.6c-25.1,0.1-45.4,20.5-45.4,45.7c0,25.2,20.5,45.6,45.7,45.6C96.3,105,116.6,84.5,116.6,59.4z"></path> <path class="st0" d="M95.9,158c5.8,5.8,11.3,11.4,16.9,17.1c3.9,3.9,7.9,7.8,11.8,11.8c6.6,6.7,8.2,14.1,4.7,21.8 c-3.8,8.3-12.3,13.6-21,12.8c-4.7-0.4-8.5-2.8-11.8-6.2c-7.9-7.9-15.7-15.9-23.6-23.8c-0.5-0.5-0.9-1.1-2.1-2.4 c-0.5,1-0.8,1.8-1.3,2.4c-7.8,7.9-15.6,15.8-23.5,23.6c-6.5,6.5-13.8,8.1-21.5,4.7c-8.1-3.6-13.5-11.7-13.2-20.1 c0.2-4.4,2-8.3,5.1-11.4c9.3-9.4,18.6-18.7,27.9-28.1c0.7-0.7,1.4-1.2,2.6-2.1c-2.9-0.8-5.2-1.3-7.4-1.9 C28,153.1,18,147.4,9.1,139.6c-4.5-4-7.6-8.8-7.2-15c0.9-13.6,12.8-24.3,27.8-18.2c2.2,0.9,4.3,2.1,6.2,3.5 c20.6,14.7,50,14.7,70.6-0.1c5.3-3.8,11.2-6.1,17.8-4.8c12.6,2.4,19.4,16.6,13.6,28.1c-2.5,5-6.4,8.7-10.9,11.8 c-8.7,6.2-18.5,9.9-28.7,12.6C97.5,157.6,96.8,157.7,95.9,158z M60.7,146.4c2.5-0.7,4.3,0.3,5.7,2.1c2.4,3.2,2.2,6.9-0.6,9.8 c-4.8,4.9-9.7,9.7-14.5,14.6c-8,8-16,16-24,24c-2.5,2.5-2.6,5.2-0.3,7.9c2.7,3.3,6.3,3.4,9.3,0.4c9.6-9.6,19.1-19.2,28.7-28.8 c4.5-4.5,7.9-4.5,12.3-0.1c9.7,9.7,19.3,19.4,29,29.1c1.3,1.3,2.7,2.3,4.5,2c2.9-0.4,4.9-2.1,5.9-4.8c0.9-2.5-0.1-4.4-1.9-6.2 c-7.1-7-14.2-14.1-21.3-21.2c-5.6-5.6-11.2-11.2-16.8-16.8c-3.4-3.4-3.1-8.4,0.6-11.4c1.7-1.4,3.6-0.8,5.5-1.1 c10-1.2,19.9-3.1,28.7-8.2c4.7-2.7,9-6.1,13.3-9.6c2.5-2,2.3-4.3,0.4-7.4c-1.4-2.3-3.6-3.1-6.4-2.1c-1.5,0.6-3,1.4-4.4,2.3 c-24.5,16.2-50.1,18-76.7,5.6c-4.4-2.1-8.5-4.8-12.9-7.1c-4.5-2.3-6.9-1.3-8.7,3.4c-0.6,1.7-0.4,3.2,0.7,4.4 c1.1,1.3,2.4,2.5,3.8,3.6c7.5,6,15.8,10.3,25.2,12.4C50.6,144.6,55.7,145.4,60.7,146.4z"></path> <path class="st0" d="M103.7,59.4c0.1,17.9-14.5,32.7-32.4,32.8c-18.1,0.1-32.8-14.4-33-32.5c-0.2-18.1,14.6-33,32.7-33 C89,26.7,103.6,41.3,103.7,59.4z M71.1,40.5c-10.4,0-18.9,8.5-18.9,19c0,10.4,8.4,18.8,18.8,18.9c10.4,0,18.8-8.3,18.9-18.7 C90,49.2,81.6,40.6,71.1,40.5z"></path> </g> </svg> 