<svg width="23" height="23" viewBox="0 0 23 23" fill="none" xmlns="http://www.w3.org/2000/svg">
<g clip-path="url(#clip0_78_28)">
<path d="M3.26263 2.79406C7.14642 -0.949756 12.9263 -0.800537 16.5209 2.79406C19.9582 6.2314 20.1684 11.6738 17.1513 15.3563L22.4871 20.6927L21.1613 22.0185L15.8249 16.6827C12.1424 19.6997 6.69996 19.4896 3.26263 16.0523C-0.331974 12.4577 -0.500995 6.42204 3.26263 2.79406ZM15.1951 4.11989C12.2661 1.19096 7.51738 1.19096 4.58845 4.11989C1.65952 7.04882 1.65952 11.7975 4.58845 14.7264C7.51738 17.6554 12.2661 17.6554 15.1951 14.7264C18.124 11.7975 18.124 7.04882 15.1951 4.11989Z" fill="#B3A05D"/>
</g>
<defs>
<clipPath id="clip0_78_28">
<rect width="23" height="23" fill="white"/>
</clipPath>
</defs>
</svg>
