<svg width="44" height="43" viewBox="0 0 44 43" fill="none" xmlns="http://www.w3.org/2000/svg">
<path d="M20.0946 1.9728C20.6868 0.11659 23.3132 0.116587 23.9054 1.9728L27.6178 13.6099C27.8823 14.4391 28.6528 15.002 29.5232 15.002H41.6136C43.5421 15.002 44.3535 17.4625 42.8033 18.6097L32.9591 25.8943C32.271 26.4036 31.9833 27.2943 32.2434 28.1099L35.9886 39.8497C36.5785 41.6988 34.4537 43.2198 32.8935 42.0652L23.1897 34.8844C22.4828 34.3613 21.5172 34.3613 20.8103 34.8844L11.1065 42.0652C9.54631 43.2198 7.42153 41.6988 8.01142 39.8497L11.7566 28.1099C12.0167 27.2943 11.729 26.4036 11.0409 25.8943L1.19674 18.6097C-0.353507 17.4625 0.457879 15.002 2.38643 15.002H14.4768C15.3472 15.002 16.1177 14.4391 16.3822 13.6099L20.0946 1.9728Z" fill="#B3A05D"/>
</svg>
