<?xml version="1.0" encoding="UTF-8"?> <!-- Generator: Adobe Illustrator 25.4.1, SVG Export Plug-In . SVG Version: 6.00 Build 0) --> <svg xmlns="http://www.w3.org/2000/svg" xmlns:xlink="http://www.w3.org/1999/xlink" id="Слой_1" x="0px" y="0px" viewBox="0 0 283.5 283.5" style="enable-background:new 0 0 283.5 283.5;" xml:space="preserve"> <style type="text/css"> .st0{fill:#CFB764;} </style> <path class="st0" d="M283.5,30.1c-2.9,13.7-6,27.3-8.8,41c-12.4,61.6-24.7,123.2-37,184.8c-2.1,10.4-7.5,12.7-16.8,7.4 c-21.7-12.3-43.4-24.7-65.1-37c-1.9-1.1-3.8-2.2-6.2-3.5c-2.9,3.8-5.7,7.5-8.4,11.1c-7.1,9.5-14.2,18.9-21.4,28.3 c-2.6,3.4-6,4.9-10.3,3.4c-4.2-1.5-6-4.6-6-9c0-26.5-0.1-52.9,0.2-79.4c0-3,2.3-6.6,4.6-8.8c8.6-8.1,17.6-15.8,26.5-23.7 c1.5-1.3,2.8-2.7,3.8-4.7c-2.2,1.2-4.4,2.3-6.6,3.6c-15.8,9.2-31.7,18.3-47.4,27.6c-4.6,2.7-8.8,2.8-13.6,0.4 C49.6,160.9,28,150.2,6.5,139.5c-4-2-7.5-4.4-7.3-9.4c0.2-5.3,3.9-7.4,8.3-9.1C94.3,87.2,181,53.4,267.8,19.5 c8.2-3.2,10.5-2.6,15.7,3.9C283.5,25.7,283.5,27.9,283.5,30.1z M30,131.4c15.1,7.5,28.9,14.2,42.5,21.2c3.6,1.9,6.2,1.7,9.6-0.3 c30-17.6,60.1-35,90.1-52.5c12.6-7.3,25.2-14.7,37.9-22c6.1-3.5,10.6-3.1,13.7,1.3c3.2,4.5,2.3,8.4-3.1,13.4 c-1.4,1.3-2.8,2.5-4.1,3.7c-30.3,26.9-60.7,53.8-91.1,80.5c-3.1,2.7-4.3,5.4-4.2,9.5c0.3,12.8,0.1,25.5,0.1,38.3 c0,1.5,0.2,3.1,0.4,5.7c5.9-7.9,11.1-14.8,16.3-21.7c5.5-7.3,8.4-7.9,16.4-3.3c20.7,11.8,41.5,23.6,62.2,35.4 c1.7,0.9,3.4,1.8,5.4,2.8c13.6-67.7,27-134.7,40.7-202.7C184.9,71,108.1,100.9,30,131.4z"></path> </svg> 