<?xml version="1.0" encoding="UTF-8"?> <!-- Generator: Adobe Illustrator 25.4.1, SVG Export Plug-In . SVG Version: 6.00 Build 0) --> <svg xmlns="http://www.w3.org/2000/svg" xmlns:xlink="http://www.w3.org/1999/xlink" id="Слой_1" x="0px" y="0px" viewBox="0 0 141.7 163.4" style="enable-background:new 0 0 141.7 163.4;" xml:space="preserve"> <style type="text/css"> .st0{fill:#CFB764;} </style> <path class="st0" d="M102.5,1.3c2.6,1.1,3.5,3,3.6,5.8c0.7,16.4,13.4,29,29.8,29.7c4.2,0.2,5.8,1.8,5.8,6c0,7.8,0,15.5,0,23.3 c0,4-1.9,5.8-5.9,5.7c-9.9-0.2-19.3-2.4-28.2-6.9c-0.5-0.2-0.9-0.4-1.6-0.7c0,0.8,0,1.4,0,2c0,15.2,0.1,30.5-0.1,45.7 c-0.3,23.8-18.2,45.2-41.5,50.1c-2.5,0.5-5.1,0.9-7.6,1.3c-2.6,0-5.3,0-7.9,0c-2.8-0.5-5.7-0.9-8.5-1.5c-20-4.5-36.1-21.6-39.7-41.9 C-3.6,94.4,10,70.1,34.2,60.7c6-2.3,12.2-3.4,18.6-3.4c2.8,0,4.9,1.8,4.9,4.7c0.1,8.5,0.1,17,0,25.5c0,2.9-2,4.6-5,4.8 c-9.7,0.4-16.9,7.3-17.8,16.9c-0.8,9,5.8,17.6,14.9,19.1c9.2,1.6,18.4-4.1,20.7-13.1c0.5-1.8,0.7-3.6,0.7-5.5c0-34,0.1-68.1,0-102.1 c0-2.9,0.9-5,3.5-6.2C83.9,1.3,93.2,1.3,102.5,1.3z M80.7,10.9c0,0.8,0,1.5,0,2.2c0,32.3,0,64.7,0,97c0,17.1-14.8,30-31.6,27.7 c-12.2-1.7-22.2-11.9-23.5-23.8c-1.4-13.3,5.9-25.3,18.1-29.6c1.5-0.5,3.7-0.6,4.4-1.7c0.8-1.2,0.2-3.3,0.2-4.9c0-3.5,0-6.9,0-10.6 c-1.1,0.1-1.9,0.2-2.8,0.4c-23,3.9-39,25.9-35.7,48.9c3.4,23.4,24.1,39.6,47.7,37.3c21.6-2.1,38.8-20.5,39-42.2 c0.2-18.3,0.1-36.6,0.1-54.9c0-2.2,0.5-4,2.5-5.1c2.1-1.1,3.9-0.5,5.8,0.8c6,4.3,12.6,7.2,19.8,8.7c2.4,0.5,4.9,0.8,7.6,1.3 c0-5.3,0-10.3,0-15.2c0-1-0.7-1-1.4-1.1c-16.7-3.1-27.6-12.8-32.7-28.9c-0.6-2-0.9-4.1-1.4-6.2C91.4,10.9,86.2,10.9,80.7,10.9z"></path> </svg> 